# Blender v2.78 (sub 0) OBJ File: ''
# www.blender.org
mtllib Corner_T.mtl
o rua.002_Plane.000
v 7.976848 0.000001 -7.996234
v 7.945853 0.000003 -15.988701
v -8.054147 0.000003 -15.988701
v -8.000913 0.000001 -7.996234
v 7.992346 -0.000001 8.000000
v 15.984693 -0.000001 8.000000
v 15.984693 0.000001 -8.000000
v -15.948592 -0.000001 8.000000
v -7.974296 -0.000001 8.000000
v -15.948592 0.000001 -8.000000
vt 1.0048 0.9904
vt 1.0028 1.4697
vt -0.0199 1.4697
vt -0.0165 0.9904
vt 1.0058 0.0309
vt 1.5166 0.0309
vt 1.5166 0.9906
vt -0.5244 0.0309
vt -0.0148 0.0309
vt -0.5244 0.9906
vn 0.0000 1.0000 0.0000
usemtl alfalt
s 1
f 1/1/1 2/2/1 3/3/1 4/4/1
f 5/5/1 6/6/1 7/7/1 1/1/1
f 8/8/1 9/9/1 4/4/1 10/10/1
f 9/9/1 5/5/1 1/1/1 4/4/1
o calsada_Plane.000
v -6.644769 0.210001 -6.587901
v -6.213672 0.210001 -7.233084
v -8.050997 0.210001 -7.994127
v -8.053942 0.212153 -6.002973
v -7.289951 0.210001 -6.156803
v -6.058481 0.212153 -7.998433
v -7.289951 0.000001 -6.156803
v -6.644769 0.000001 -6.587901
v -6.213672 0.000001 -7.233084
v -8.053942 0.000001 -6.002973
v -6.058481 0.000001 -7.998433
v 6.644769 0.210001 -6.587901
v 8.050020 0.213229 -8.000027
v 6.213672 0.210001 -7.233084
v 8.035894 0.212153 -6.002973
v 7.289951 0.210001 -6.156803
v 6.063231 0.212153 -7.998433
v 7.289951 0.000001 -6.156803
v 6.644769 0.000001 -6.587901
v 6.213672 0.000001 -7.233084
v 8.035894 0.000001 -6.002973
v 6.063231 0.000001 -7.998433
v 8.064146 0.214307 -16.002739
v 6.064171 0.214307 -16.002739
v 8.064146 0.000003 -16.002739
v 6.064171 0.000003 -16.002739
v 8.050020 0.000001 -8.000027
v -6.054671 0.214307 -16.002739
v -8.054646 0.214307 -16.002739
v -8.054646 0.000003 -16.002739
v -6.054671 0.000003 -16.002739
v -8.055767 0.000001 -8.001619
v -0.018048 0.214303 8.000500
v 16.020790 0.214303 8.000500
v 16.020790 0.214303 6.000524
v -0.018048 0.214303 6.000524
v 16.020790 -0.000001 8.000500
v 16.020790 -0.000001 6.000524
v -0.018048 -0.000001 6.000524
v -0.018048 -0.000001 8.000500
v 16.020790 0.214305 -6.000524
v 16.020790 0.214305 -8.000500
v 16.020790 0.000001 -8.000500
v 16.020790 0.000001 -6.000524
v -16.056889 0.214303 8.000500
v -16.056889 0.214303 6.000524
v -16.056889 -0.000001 6.000524
v -16.056889 -0.000001 8.000500
v -16.056889 0.214305 -8.000500
v -16.056889 0.214305 -6.000524
v -16.056889 0.000001 -6.000524
v -16.056889 0.000001 -8.000500
vt 0.7158 0.4529
vt 0.6884 0.6515
vt 0.1812 0.4622
vt 0.5892 0.0743
vt 0.6801 0.2603
vt 0.5996 0.8502
vt 0.7331 0.2422
vt 0.7737 0.4503
vt 0.7464 0.6668
vt 0.6414 0.0494
vt 0.6585 0.8759
vt 0.6054 0.5604
vt 0.0509 0.0218
vt 0.3737 0.7347
vt 0.8645 0.0447
vt 0.7663 0.3276
vt 0.0795 0.8462
vt 0.8390 0.3634
vt 0.6669 0.6172
vt 0.4172 0.8098
vt 0.9431 0.0729
vt 0.1131 0.9328
vt -1.0102 0.0904
vt 1.9683 0.0920
vt 1.9624 0.8937
vt -1.0160 0.8921
vt 0.9846 0.0703
vt 0.9831 0.3366
vt 0.8984 0.3365
vt 0.8999 0.0703
vt 1.9618 0.9796
vt -1.0167 0.9781
vt -1.0095 0.0045
vt 1.9689 0.0061
vt -1.0003 0.1181
vt -1.0063 0.8943
vt 2.0081 0.8958
vt 2.0141 0.1196
vt 0.9846 0.0703
vt 0.8999 0.0703
vt 0.8984 0.3365
vt 0.9831 0.3366
vt 2.0075 0.9790
vt -1.0069 0.9775
vt -0.9996 0.0349
vt 2.0147 0.0365
vt 0.4922 0.0963
vt 6.9908 0.0963
vt 6.9908 0.8884
vt 0.4922 0.8884
vt 0.0001 0.2149
vt 0.9999 0.2149
vt 0.9999 0.3220
vt 0.0001 0.3220
vt 6.9907 0.9733
vt 0.4922 0.9733
vt 0.4922 0.0114
vt 6.9908 0.0114
vt -1.0189 0.1157
vt -1.0248 0.8828
vt 1.9642 0.8843
vt 1.9701 0.1172
vt 0.9999 0.0001
vt 0.9999 0.1073
vt 0.0001 0.1073
vt 0.0001 0.0001
vt 1.9636 0.9665
vt -1.0254 0.9650
vt -1.0183 0.0335
vt 1.9708 0.0350
vt -6.0064 0.0963
vt -6.0064 0.8884
vt 0.9999 0.2146
vt 0.0001 0.2146
vt 0.0001 0.1075
vt 0.9999 0.1075
vt -6.0064 0.9733
vt -6.0064 0.0114
vt -1.0048 0.1328
vt -1.0108 0.8858
vt 2.0064 0.8873
vt 2.0124 0.1343
vt 0.0001 0.4294
vt 0.0001 0.3223
vt 0.9999 0.3223
vt 0.9999 0.4294
vt 2.0058 0.9680
vt -1.0114 0.9665
vt -1.0042 0.0521
vt 2.0131 0.0536
vn -0.0000 1.0000 0.0000
vn 0.0026 1.0000 -0.0011
vn -0.0011 1.0000 0.0026
vn 0.5556 0.0000 0.8315
vn 0.8315 0.0000 0.5556
vn 0.1974 0.0000 0.9803
vn 0.9801 0.0000 0.1987
vn -0.0014 1.0000 0.0009
vn -0.0030 1.0000 0.0005
vn -0.0005 1.0000 0.0029
vn -0.0009 1.0000 0.0014
vn -0.5556 0.0000 0.8315
vn -0.8315 0.0000 0.5556
vn -0.2020 0.0000 0.9794
vn -0.9812 0.0000 0.1929
vn -0.0003 1.0000 0.0002
vn 0.0000 0.0000 -1.0000
vn -1.0000 0.0000 -0.0001
vn 1.0000 0.0000 0.0018
vn -0.0005 1.0000 0.0004
vn 1.0000 0.0000 0.0005
vn -0.9999 0.0112 0.0002
vn 1.0000 0.0000 0.0000
vn 0.0000 0.0000 1.0000
vn -0.0002 1.0000 0.0003
vn -0.0003 0.0000 1.0000
vn -0.0001 0.0000 -1.0000
vn -1.0000 0.0000 0.0000
vn 0.0004 1.0000 -0.0005
vn 0.0003 0.0000 1.0000
vn 0.0003 0.0177 -0.9998
usemtl None.001
s off
f 11/11/2 12/12/2 13/13/2
f 14/14/3 15/15/3 13/13/3
f 12/12/4 16/16/4 13/13/4
f 15/15/2 11/11/2 13/13/2
f 17/17/5 18/18/5 11/11/5 15/15/5
f 18/18/6 19/19/6 12/12/6 11/11/6
f 20/20/7 17/17/7 15/15/7 14/14/7
f 19/19/8 21/21/8 16/16/8 12/12/8
f 22/22/9 23/23/9 24/24/9
f 25/25/10 23/23/10 26/26/10
f 24/24/11 23/23/11 27/27/11
f 26/26/12 23/23/12 22/22/12
f 28/28/13 26/26/13 22/22/13 29/29/13
f 29/29/14 22/22/14 24/24/14 30/30/14
f 31/31/15 25/25/15 26/26/15 28/28/15
f 30/30/16 24/24/16 27/27/16 32/32/16
f 23/33/17 33/34/17 34/35/17 27/36/17
f 35/37/18 36/38/18 34/39/18 33/40/18
f 36/41/19 32/42/19 27/36/19 34/35/19
f 37/43/20 35/44/20 33/34/20 23/33/20
f 13/45/21 16/46/21 38/47/21 39/48/21
f 40/49/18 39/50/18 38/51/18 41/52/18
f 41/53/22 38/47/22 16/46/22 21/54/22
f 42/55/23 13/45/23 39/48/23 40/56/23
f 43/57/2 44/58/2 45/59/2 46/60/2
f 47/61/24 48/62/24 45/63/24 44/64/24
f 48/65/18 49/66/18 46/60/18 45/59/18
f 50/67/25 47/68/25 44/58/25 43/57/25
f 23/69/26 25/70/26 51/71/26 52/72/26
f 53/73/24 52/74/24 51/75/24 54/76/24
f 54/77/27 51/71/27 25/70/27 31/78/27
f 37/79/28 23/69/28 52/72/28 53/80/28
f 55/81/2 43/57/2 46/60/2 56/82/2
f 57/83/29 58/84/29 55/85/29 56/86/29
f 49/66/18 57/87/18 56/82/18 46/60/18
f 58/88/25 50/67/25 43/57/25 55/81/25
f 59/89/30 60/90/30 14/91/30 13/92/30
f 61/93/29 60/94/29 59/95/29 62/96/29
f 20/97/31 14/91/31 60/90/31 61/98/31
f 62/99/32 59/89/32 13/92/32 42/100/32
