# Blender v2.78 (sub 0) OBJ File: ''
# www.blender.org
mtllib curve.mtl
o rua_Plane.002
v -8.000000 -0.000001 8.000000
v 8.000000 -0.000001 8.000000
v 8.000000 0.000001 -8.000000
v -8.000000 0.000001 -8.000000
vt 0.0001 0.0001
vt 0.9999 0.0001
vt 0.9999 0.9999
vt 0.0001 0.9999
vn 0.0000 1.0000 0.0000
usemtl Material.001
s off
f 1/1/1 2/2/1 3/3/1 4/4/1
o Circle
v -7.260449 -0.000001 6.159522
v -8.030373 -0.000001 5.995246
v -8.030373 0.216306 5.995246
v -7.260449 0.216306 6.159522
v -6.171610 -0.000001 7.248359
v -6.607738 -0.000001 6.595648
v -6.607738 0.216306 6.595648
v -6.171610 0.216306 7.248359
v -6.018462 -0.000001 8.001593
v -6.018462 0.216306 8.001593
v -8.033920 0.216306 8.007148
v -6.607738 -0.000001 6.595648
v -7.260449 -0.000001 6.159522
v -6.018462 -0.000001 8.001593
v -6.171610 -0.000001 7.248359
v -8.030373 -0.000001 5.995246
vt 0.3724 0.8737
vt 0.0350 0.9999
vt 0.0001 0.9026
vt 0.3265 0.7885
vt 0.8513 0.4011
vt 0.6528 0.6720
vt 0.5865 0.6064
vt 0.7719 0.3581
vt 0.9754 0.0942
vt 0.8890 0.0593
vt 0.0001 0.0001
vt 0.6528 0.6720
vt 0.3724 0.8737
vt 0.9754 0.0942
vt 0.8513 0.4011
vt 0.0350 0.9999
vn 0.2087 0.0000 -0.9780
vn 0.8315 0.0000 -0.5556
vn 0.5556 0.0000 -0.8315
vn 0.9799 0.0000 -0.1992
vn -0.0000 1.0000 0.0000
vn 0.0000 0.0000 1.0000
usemtl None
s off
f 5/5/2 6/6/2 7/7/2 8/8/2
f 9/9/3 10/10/3 11/11/3 12/12/3
f 10/10/4 5/5/4 8/8/4 11/11/4
f 13/13/5 9/9/5 12/12/5 14/14/5
f 12/12/6 11/11/6 15/15/6
f 11/11/6 8/8/6 15/15/6
f 14/14/6 12/12/6 15/15/6
f 8/8/6 7/7/6 15/15/6
f 5/5/7 10/10/7 16/16/7 17/17/7
f 9/9/7 13/13/7 18/18/7 19/19/7
f 6/6/7 5/5/7 17/17/7 20/20/7
f 10/10/7 9/9/7 19/19/7 16/16/7
o Circle.001
v -7.970546 0.000232 -5.976743
v -5.241134 0.000232 -5.707922
v -5.241134 0.200779 -5.707922
v -7.970546 0.200779 -5.976743
v 5.751239 0.000230 5.284422
v 6.020067 0.000230 8.013857
v 6.020067 0.200777 8.013857
v 5.751239 0.200777 5.284422
v 4.955090 0.000231 2.659880
v 4.955090 0.200778 2.659880
v 3.662215 0.000231 0.241088
v 3.662215 0.200778 0.241088
v 1.922299 0.000231 -1.878999
v 1.922299 0.200778 -1.878999
v -0.197793 0.000232 -3.618910
v -0.197793 0.200779 -3.618910
v -2.616589 0.000232 -4.911778
v -2.616589 0.200779 -4.911778
v 6.772428 0.200778 1.907112
v 5.297775 0.200778 -0.851761
v 3.313228 0.200779 -3.269931
v 0.895051 0.200779 -5.254472
v -1.863825 0.200779 -6.729117
v -4.857380 0.200779 -7.637198
v -7.970546 0.200779 -7.943815
v 7.987140 0.200777 8.013855
v 7.680516 0.200777 4.900664
v 0.967818 -0.147905 -5.188601
v -1.791058 -0.147905 -6.663246
v -4.784614 -0.147905 -7.571327
v -7.897779 -0.147905 -7.877944
v 8.059908 -0.147907 8.079727
v 7.753282 -0.147907 4.966535
v 6.845194 -0.147906 1.972983
v 5.370541 -0.147906 -0.785890
v 3.385994 -0.147905 -3.204060
v -1.863825 0.200779 -6.729117
v -1.791058 -0.147905 -6.663246
v 0.967818 -0.147905 -5.188601
v 0.895051 0.200779 -5.254472
v -4.857380 0.200779 -7.637198
v -4.784614 -0.147905 -7.571327
v -7.970546 0.200779 -7.943815
v -7.897779 -0.147905 -7.877944
v 7.680516 0.200777 4.900664
v 7.753282 -0.147907 4.966535
v 8.059908 -0.147907 8.079727
v 7.987140 0.200777 8.013855
v 6.772428 0.200778 1.907112
v 6.845194 -0.147906 1.972983
v 5.297775 0.200778 -0.851761
v 5.370541 -0.147906 -0.785890
v 3.313228 0.200779 -3.269931
v 3.385994 -0.147905 -3.204060
v 8.058920 -0.059811 -8.044441
v 7.986154 0.288874 -8.039494
vt 0.0014 0.0190
vt 0.9954 0.0190
vt 0.9954 0.0951
vt 0.0014 0.0951
vt 0.0021 0.0128
vt 0.9976 0.0128
vt 0.9976 0.0904
vt 0.0021 0.0904
vt 0.0043 0.0252
vt 1.0011 0.0252
vt 1.0011 0.1013
vt 0.0043 0.1013
vt -0.0022 0.0042
vt 0.9948 0.0042
vt 0.9948 0.0822
vt -0.0022 0.0822
vt 0.0050 0.0020
vt 0.9997 0.0020
vt 0.9997 0.0809
vt 0.0050 0.0809
vt 0.0041 0.0017
vt 0.9939 0.0017
vt 0.9939 0.0796
vt 0.0041 0.0796
vt -0.0017 0.0221
vt 0.9994 0.0221
vt 0.9994 0.0982
vt -0.0017 0.0982
vt 0.0015 0.0045
vt 0.9957 0.0045
vt 0.9957 0.0830
vt 0.0015 0.0830
vt 0.9948 0.8473
vt -0.0022 0.8473
vt 0.9997 0.8542
vt 0.0050 0.8542
vt 0.9939 0.8438
vt 0.0041 0.8438
vt 0.9994 0.8452
vt -0.0017 0.8452
vt 0.9957 0.8524
vt 0.0015 0.8524
vt 0.9954 0.8421
vt 0.0014 0.8421
vt 0.9976 0.8519
vt 0.0021 0.8519
vt 1.0011 0.8483
vt 0.0043 0.8483
vt 0.9994 0.9828
vt -0.0017 0.9828
vt 0.9957 0.9941
vt 0.0015 0.9941
vt 0.9954 0.9797
vt 0.0014 0.9797
vt 0.9976 0.9921
vt 0.0021 0.9921
vt 1.0011 0.9859
vt 0.0043 0.9859
vt 0.9948 0.9882
vt -0.0022 0.9882
vt 0.9997 0.9966
vt 0.0050 0.9966
vt 0.9939 0.9845
vt 0.0041 0.9845
vt -0.0017 0.8452
vt -0.0017 0.9828
vt 0.9994 0.9828
vt 0.9994 0.8452
vt 0.0015 0.8524
vt 0.0015 0.9941
vt 0.9957 0.9941
vt 0.9957 0.8524
vt 0.0014 0.8421
vt 0.0014 0.9797
vt 0.9954 0.9797
vt 0.9954 0.8421
vt 0.0021 0.8519
vt 0.0021 0.9921
vt 0.9976 0.9921
vt 0.9976 0.8519
vt 0.0043 0.8483
vt 0.0043 0.9859
vt 1.0011 0.9859
vt 1.0011 0.8483
vt -0.0022 0.8473
vt -0.0022 0.9882
vt 0.9948 0.9882
vt 0.9948 0.8473
vt 0.0050 0.8542
vt 0.0050 0.9966
vt 0.9997 0.9966
vt 0.9997 0.8542
vt 0.0041 0.8438
vt 0.0041 0.9845
vt 0.9939 0.9845
vt 0.9939 0.8438
vt 0.9954 0.9797
vt 0.9976 0.9921
vt 1.1279 2.5017
vt 2.0400 2.7784
vt -1.9027 2.8718
vt 1.0011 0.9859
vt 0.2873 2.0524
vt 0.9948 0.9882
vt -0.4495 1.4479
vt 0.9997 0.9966
vt -1.0542 0.7111
vt -1.9824 -1.9691
vt -1.8740 -1.9899
vt -2.0092 2.8928
vt 0.9939 0.9845
vt -1.5036 -0.1294
vt 2.9885 2.8719
vt 3.0092 2.9803
vt -1.9036 2.9803
vt 0.9994 0.9828
vt -1.7804 -1.0414
vt 0.9957 0.9941
vn -0.0980 0.0000 0.9952
vn -0.9952 0.0000 0.0980
vn -0.9569 0.0000 0.2903
vn -0.8819 -0.0000 0.4714
vn -0.7730 0.0000 0.6344
vn -0.6344 0.0000 0.7730
vn -0.4714 0.0000 0.8819
vn -0.2903 0.0000 0.9569
vn -0.0000 1.0000 0.0000
vn 0.4703 -0.0681 -0.8799
vn 0.2882 -0.1193 -0.9501
vn 0.0967 -0.1652 -0.9815
vn 0.9778 0.1859 -0.0963
vn 0.9471 0.1434 -0.2873
vn 0.8780 0.0946 -0.4693
vn 0.7723 0.0414 -0.6338
vn 0.6343 -0.0136 -0.7729
vn -0.4703 0.0681 0.8799
vn -0.2882 0.1193 0.9501
vn -0.0967 0.1652 0.9815
vn -0.9778 -0.1859 0.0963
vn -0.9471 -0.1434 0.2873
vn -0.8780 -0.0946 0.4693
vn -0.7723 -0.0414 0.6338
vn -0.6343 0.0136 0.7729
vn 0.0050 -0.9987 -0.0506
vn 0.0554 -0.9984 -0.0055
vn -0.0208 0.9998 0.0063
vn 0.0207 -0.9998 -0.0063
vn -0.0135 0.9999 0.0072
vn 0.0134 -0.9999 -0.0072
vn -0.0103 0.9999 0.0084
vn 0.0102 -0.9999 -0.0084
vn -0.0084 0.9999 0.0102
vn -0.0077 -0.0886 -0.9960
vn 0.0083 -0.9999 -0.0102
vn -0.0072 0.9999 0.0134
vn 0.9789 0.2044 0.0011
vn 0.0071 -0.9999 -0.0133
vn -0.0062 0.9998 0.0205
vn 0.0061 -0.9998 -0.0202
vn -0.0052 0.9986 0.0528
vn -0.0557 0.9984 0.0055
usemtl 1
s off
f 21/21/8 22/22/8 23/23/8 24/24/8
f 25/25/9 26/26/9 27/27/9 28/28/9
f 29/29/10 25/30/10 28/31/10 30/32/10
f 31/33/11 29/34/11 30/35/11 32/36/11
f 33/37/12 31/38/12 32/39/12 34/40/12
f 35/41/13 33/42/13 34/43/13 36/44/13
f 37/45/14 35/46/14 36/47/14 38/48/14
f 22/49/15 37/50/15 38/51/15 23/52/15
f 32/36/16 30/35/16 39/53/16 40/54/16
f 34/40/16 32/39/16 40/55/16 41/56/16
f 36/44/16 34/43/16 41/57/16 42/58/16
f 38/48/16 36/47/16 42/59/16 43/60/16
f 23/52/16 38/51/16 43/61/16 44/62/16
f 24/24/16 23/23/16 44/63/16 45/64/16
f 28/28/16 27/27/16 46/65/16 47/66/16
f 30/32/16 28/31/16 47/67/16 39/68/16
f 43/60/17 42/59/17 48/69/17 49/70/17
f 44/62/18 43/61/18 49/71/18 50/72/18
f 45/64/19 44/63/19 50/73/19 51/74/19
f 47/66/20 46/65/20 52/75/20 53/76/20
f 39/68/21 47/67/21 53/77/21 54/78/21
f 40/54/22 39/53/22 54/79/22 55/80/22
f 41/56/23 40/55/23 55/81/23 56/82/23
f 42/58/24 41/57/24 56/83/24 48/84/24
f 57/85/25 58/86/25 59/87/25 60/88/25
f 61/89/26 62/90/26 58/91/26 57/92/26
f 63/93/27 64/94/27 62/95/27 61/96/27
f 65/97/28 66/98/28 67/99/28 68/100/28
f 69/101/29 70/102/29 66/103/29 65/104/29
f 71/105/30 72/106/30 70/107/30 69/108/30
f 73/109/31 74/110/31 72/111/31 71/112/31
f 60/113/32 59/114/32 74/115/32 73/116/32
f 62/95/33 64/94/33 75/117/33
f 67/99/34 66/98/34 75/118/34
f 69/119/35 65/120/35 76/121/35
f 66/103/36 70/102/36 75/122/36
f 71/123/37 69/119/37 76/121/37
f 70/107/38 72/106/38 75/124/38
f 73/125/39 71/123/39 76/121/39
f 72/111/40 74/110/40 75/126/40
f 60/127/41 73/125/41 76/121/41
f 64/128/42 63/129/42 76/121/42 75/130/42
f 74/115/43 59/114/43 75/131/43
f 57/132/44 60/127/44 76/121/44
f 68/133/45 67/134/45 75/135/45 76/121/45
f 59/87/46 58/86/46 75/136/46
f 61/137/47 57/132/47 76/121/47
f 58/91/48 62/90/48 75/138/48
f 63/129/49 61/137/49 76/121/49
f 65/120/50 68/133/50 76/121/50
