# Blender v2.78 (sub 0) OBJ File: ''
# www.blender.org
mtllib street.mtl
o rua_Plane
v -8.000000 -0.000001 8.000000
v 8.000000 -0.000001 8.000000
v 8.000000 0.000001 -8.000000
v -8.000000 0.000001 -8.000000
vt 0.0001 0.0001
vt 0.9999 0.0001
vt 0.9999 0.9999
vt 0.0001 0.9999
vn 0.0000 1.0000 0.0000
usemtl asfalt
s 1
f 1/1/1 2/2/1 3/3/1 4/4/1
o calsada_Plane.001
v -8.000000 0.214303 8.000599
v 8.000000 0.214303 8.000599
v 8.000000 0.214303 6.000598
v -8.000000 0.214303 6.000598
v 8.000000 -0.000001 8.000599
v 8.000000 -0.000001 6.000598
v -8.000000 -0.000001 6.000598
v -8.000000 -0.000001 8.000599
v -8.000000 0.214305 -8.000599
v -8.000000 0.214305 -6.000598
v 8.000000 0.214305 -6.000598
v 8.000000 0.214305 -8.000599
v 8.000000 0.000001 -8.000599
v 8.000000 0.000001 -6.000598
v -8.000000 0.000001 -6.000598
v -8.000000 0.000001 -8.000599
vt 3.0022 0.9117
vt -2.0022 0.9117
vt -2.0022 0.0883
vt 3.0022 0.0883
vt -2.5385 0.9117
vt -2.5385 0.0883
vt 3.5385 0.0883
vt 3.5385 0.9117
vt -2.0022 0.0001
vt 3.0022 0.0001
vt 3.0022 0.9999
vt -2.0022 0.9999
vt 3.0022 0.9117
vt 3.0022 0.0883
vt -2.0022 0.0883
vt -2.0022 0.9117
vt -2.5385 0.9117
vt -2.5385 0.0883
vt 3.5385 0.0883
vt 3.5385 0.9117
vt -2.0022 0.0001
vt 3.0022 0.0001
vt 3.0022 0.9999
vt -2.0022 0.9999
vn 0.0000 1.0000 0.0000
vn 1.0000 0.0000 0.0000
vn -1.0000 0.0000 0.0000
vn 0.0000 0.0000 -1.0000
vn 0.0000 0.0000 1.0000
usemtl controto
s off
f 5/5/2 6/6/2 7/7/2 8/8/2
f 9/9/3 10/10/3 7/7/3 6/6/3
f 11/11/4 12/12/4 5/5/4 8/8/4
f 10/13/5 11/14/5 8/8/5 7/7/5
f 12/15/6 9/16/6 6/6/6 5/5/6
f 13/17/2 14/18/2 15/19/2 16/20/2
f 17/21/3 16/20/3 15/19/3 18/22/3
f 19/23/4 14/18/4 13/17/4 20/24/4
f 18/25/6 15/19/6 14/18/6 19/26/6
f 20/27/5 13/17/5 16/20/5 17/28/5
